<svg width="23" height="22" viewBox="0 0 23 22" fill="none" xmlns="http://www.w3.org/2000/svg">
<path d="M22.5447 19.8395L22.2895 19.6141C21.5655 18.9685 20.9317 18.2282 20.4054 17.4132C19.8305 16.2883 19.486 15.0599 19.392 13.8V10.0892C19.3889 9.63847 19.3488 9.18875 19.2719 8.74461C18.0004 8.48308 16.8582 7.78988 16.0388 6.78238C15.2194 5.77488 14.7731 4.51497 14.7755 3.21597V2.74273C13.9917 2.35677 13.1497 2.10296 12.2833 1.99156V1.04508C12.2833 0.779113 12.1777 0.524042 11.9898 0.335978C11.8019 0.147913 11.547 0.0422592 11.2812 0.0422592C11.0154 0.0422592 10.7605 0.147913 10.5726 0.335978C10.3847 0.524042 10.2791 0.779113 10.2791 1.04508V2.02911C8.33918 2.30296 6.56378 3.26986 5.28065 4.75132C3.99752 6.23278 3.2933 8.12875 3.29801 10.0892V13.8C3.20399 15.0599 2.85946 16.2883 2.28463 17.4132C1.76734 18.2262 1.14378 18.9664 0.430515 19.6141L0.175293 19.8395V21.9578H22.5447V19.8395Z" fill="#3692EB"/>
</svg>
