<svg width="48" height="63" viewBox="0 0 48 63" fill="none" xmlns="http://www.w3.org/2000/svg">
<path d="M22.7769 51.6556C20.6605 53.0708 19.605 56.4148 20.4078 59.1025C21.2107 61.7901 23.5799 62.8441 25.6963 61.4289C27.8127 60.0137 28.8874 56.6568 28.0846 53.9691C27.2818 51.2815 24.8933 50.2404 22.7769 51.6556ZM0.285263 22.725C0.686676 24.0689 1.88091 24.5894 2.93911 23.8818L4.86311 22.5952L17.329 36.5085L16.5124 44.207C16.0859 48.4203 19.1226 51.1678 22.0471 49.2122L43.2111 35.0602C44.2693 34.3526 44.8067 32.6742 44.4053 31.3303C44.0039 29.9865 42.8096 29.4659 41.7514 30.1736L20.5874 44.3256L21.2441 38.0238L35.5779 28.439C37.0209 27.474 37.9915 25.6232 38.1932 23.6709L40.3445 3.20785C40.396 2.72908 40.3544 2.25576 40.2238 1.83472C40.0933 1.41369 39.8782 1.05953 39.6 0.807302C39.3218 0.555073 38.9901 0.41351 38.6376 0.396624C38.2851 0.379741 37.9242 0.488118 37.5904 0.711031L9.11516 19.752L6.7824 17.12C6.50319 16.8063 6.15291 16.6177 5.77257 16.5761C5.39223 16.5345 4.99757 16.6417 4.63479 16.8852L1.47942 18.9951C0.421222 19.7028 -0.11615 21.3812 0.285263 22.725ZM42.0169 38.7901C39.9005 40.2053 38.845 43.5493 39.6479 46.237C40.4507 48.9246 42.8199 49.9786 44.9363 48.5634C47.0527 47.1482 48.1275 43.7913 47.3246 41.1036C46.5218 38.416 44.1333 37.3749 42.0169 38.7901Z" fill="white" fill-opacity="0.13"/>
</svg>
