<svg width="18" height="21" viewBox="0 0 18 21" fill="none" xmlns="http://www.w3.org/2000/svg">
<path d="M15.1051 11.4689C15.1418 11.1689 15.1601 10.8589 15.1601 10.5289C15.1601 10.2089 15.1418 9.88893 15.096 9.58893L16.9568 8.00893C17.037 7.93683 17.0918 7.83662 17.1118 7.72539C17.1319 7.61417 17.116 7.49879 17.0668 7.39893L15.3068 4.07893C15.255 3.97849 15.1723 3.9013 15.0733 3.86104C14.9743 3.82077 14.8654 3.82002 14.766 3.85893L12.5751 4.81893C12.1168 4.43893 11.631 4.11893 11.0901 3.87893L10.7601 1.33893C10.7439 1.22446 10.6906 1.12013 10.6099 1.0449C10.5291 0.969673 10.4263 0.928523 10.3201 0.928928H6.80015C6.58015 0.928928 6.40598 1.09893 6.36931 1.33893L6.03932 3.87893C5.49848 4.11893 5.00348 4.44893 4.55432 4.81893L2.36348 3.85893C2.16181 3.77893 1.93265 3.85893 1.82265 4.07893L0.0718145 7.39893C-0.0381855 7.60893 -0.00151898 7.86893 0.181814 8.00893L2.04265 9.58893C1.99681 9.88893 1.96015 10.2189 1.96015 10.5289C1.96015 10.8389 1.97848 11.1689 2.02431 11.4689L0.163481 13.0489C0.0832947 13.121 0.0285052 13.2212 0.00844754 13.3325C-0.0116102 13.4437 0.00430492 13.5591 0.0534812 13.6589L1.81348 16.9789C1.92348 17.1989 2.15265 17.2689 2.35431 17.1989L4.54515 16.2389C5.00348 16.6189 5.48931 16.9389 6.03015 17.1789L6.36015 19.7189C6.40598 19.9589 6.58015 20.1289 6.80015 20.1289H10.3201C10.5401 20.1289 10.7235 19.9589 10.751 19.7189L11.081 17.1789C11.6218 16.9389 12.1168 16.6189 12.566 16.2389L14.7568 17.1989C14.9585 17.2789 15.1876 17.1989 15.2976 16.9789L17.0576 13.6589C17.1676 13.4389 17.1218 13.1889 16.9476 13.0489L15.1051 11.4689V11.4689ZM8.56015 14.1289C6.74515 14.1289 5.26015 12.5089 5.26015 10.5289C5.26015 8.54893 6.74515 6.92893 8.56015 6.92893C10.3751 6.92893 11.8601 8.54893 11.8601 10.5289C11.8601 12.5089 10.3751 14.1289 8.56015 14.1289Z" fill="#BF743B"/>
</svg>
