<svg width="24" height="25" viewBox="0 0 24 25" fill="none" xmlns="http://www.w3.org/2000/svg">
<path d="M12.48 11.7008V14.9808H20.32C20.08 16.8208 19.467 18.1678 18.533 19.1138C17.386 20.2608 15.6 21.5138 12.48 21.5138C7.65301 21.5138 3.88001 17.6208 3.88001 12.7938C3.88001 7.96679 7.65301 4.07379 12.48 4.07379C15.08 4.07379 16.987 5.10079 18.387 6.42079L20.694 4.11379C18.747 2.22079 16.133 0.780792 12.48 0.780792C5.86701 0.780792 0.307007 6.16779 0.307007 12.7808C0.307007 19.3938 5.86701 24.7808 12.48 24.7808C16.053 24.7808 18.747 23.6078 20.853 21.4208C23.013 19.2608 23.693 16.2078 23.693 13.7538C23.693 12.9938 23.64 12.2868 23.52 11.7008H12.48Z" fill="#D6884D"/>
</svg>
