<svg width="15" height="21" viewBox="0 0 15 21" fill="none" xmlns="http://www.w3.org/2000/svg">
<path d="M12.9306 4.71783H11.0833C11.0833 2.50783 9.43007 0.717834 7.38889 0.717834C5.34771 0.717834 3.69444 2.50783 3.69444 4.71783H1.84722C0.83125 4.71783 0 5.61783 0 6.71783V18.7178C0 19.8178 0.83125 20.7178 1.84722 20.7178H12.9306C13.9465 20.7178 14.7778 19.8178 14.7778 18.7178V6.71783C14.7778 5.61783 13.9465 4.71783 12.9306 4.71783ZM5.54167 8.71783C5.54167 9.26783 5.12604 9.71783 4.61805 9.71783C4.11007 9.71783 3.69444 9.26783 3.69444 8.71783V6.71783H5.54167V8.71783ZM7.38889 2.71783C8.40486 2.71783 9.23611 3.61783 9.23611 4.71783H5.54167C5.54167 3.61783 6.37292 2.71783 7.38889 2.71783ZM11.0833 8.71783C11.0833 9.26783 10.6677 9.71783 10.1597 9.71783C9.65173 9.71783 9.23611 9.26783 9.23611 8.71783V6.71783H11.0833V8.71783Z" fill="#BF743B"/>
</svg>
