<svg width="53" height="60" viewBox="0 0 53 60" fill="none" xmlns="http://www.w3.org/2000/svg">
<path d="M32.5472 2.22737L27.6836 5.47924C25.2991 0.373073 19.0148 -0.852267 13.6405 2.74105C8.2662 6.33437 5.84461 13.3806 8.22912 18.4867L3.36551 21.7386C0.690519 23.5271 -0.527041 27.0699 0.65982 29.6115L13.6074 57.3373C14.7942 59.8788 17.9539 60.4949 20.6289 58.7064L49.8106 39.1951C52.4856 37.4066 53.7032 33.8638 52.5163 31.3223L39.5687 3.59646C38.3819 1.05493 35.2222 0.438839 32.5472 2.22737ZM17.4086 24.4768C18.002 25.7476 17.3932 27.519 16.0558 28.4132C14.7183 29.3075 13.1384 28.9994 12.545 27.7287L10.3871 23.1077L15.2507 19.8558L17.4086 24.4768ZM15.7984 7.36202C18.4734 5.57349 21.6331 6.18958 22.82 8.73112L13.0927 15.2349C11.9059 12.6933 13.1234 9.15055 15.7984 7.36202ZM31.9994 14.7212C32.5929 15.9919 31.9841 17.7633 30.6466 18.6576C29.3091 19.5519 27.7293 19.2438 27.1358 17.9731L24.9779 13.3521L29.8415 10.1002L31.9994 14.7212Z" fill="white" fill-opacity="0.13"/>
</svg>
