<svg width="18" height="21" viewBox="0 0 18 21" fill="none" xmlns="http://www.w3.org/2000/svg">
<path d="M15.1051 11.5198C15.1418 11.2198 15.1601 10.9098 15.1601 10.5798C15.1601 10.2598 15.1418 9.93977 15.096 9.63977L16.9568 8.05977C17.037 7.98767 17.0918 7.88747 17.1119 7.77624C17.1319 7.66501 17.116 7.54963 17.0668 7.44977L15.3068 4.12977C15.255 4.02933 15.1723 3.95215 15.0733 3.91188C14.9743 3.87161 14.8654 3.87086 14.766 3.90977L12.5751 4.86977C12.1168 4.48977 11.631 4.16977 11.0901 3.92977L10.7601 1.38977C10.7439 1.2753 10.6906 1.17098 10.6099 1.09575C10.5291 1.02051 10.4263 0.979365 10.3201 0.97977H6.80015C6.58015 0.97977 6.40598 1.14977 6.36931 1.38977L6.03932 3.92977C5.49848 4.16977 5.00348 4.49977 4.55432 4.86977L2.36348 3.90977C2.16181 3.82977 1.93265 3.90977 1.82265 4.12977L0.0718145 7.44977C-0.0381855 7.65977 -0.00151898 7.91977 0.181814 8.05977L2.04265 9.63977C1.99681 9.93977 1.96015 10.2698 1.96015 10.5798C1.96015 10.8898 1.97848 11.2198 2.02431 11.5198L0.163481 13.0998C0.0832947 13.1719 0.0285052 13.2721 0.00844754 13.3833C-0.0116102 13.4945 0.00430492 13.6099 0.0534812 13.7098L1.81348 17.0298C1.92348 17.2498 2.15265 17.3198 2.35431 17.2498L4.54515 16.2898C5.00348 16.6698 5.48932 16.9898 6.03015 17.2298L6.36015 19.7698C6.40598 20.0098 6.58015 20.1798 6.80015 20.1798H10.3201C10.5401 20.1798 10.7235 20.0098 10.751 19.7698L11.081 17.2298C11.6218 16.9898 12.1168 16.6698 12.566 16.2898L14.7568 17.2498C14.9585 17.3298 15.1876 17.2498 15.2976 17.0298L17.0576 13.7098C17.1677 13.4898 17.1218 13.2398 16.9476 13.0998L15.1051 11.5198ZM8.56015 14.1798C6.74515 14.1798 5.26015 12.5598 5.26015 10.5798C5.26015 8.59977 6.74515 6.97977 8.56015 6.97977C10.3751 6.97977 11.8601 8.59977 11.8601 10.5798C11.8601 12.5598 10.3751 14.1798 8.56015 14.1798Z" fill="#BF743B"/>
</svg>
