<svg width="19" height="19" viewBox="0 0 19 19" fill="none" xmlns="http://www.w3.org/2000/svg">
<path d="M17.4167 9.24893C17.4167 3.75893 13.5117 0.0289307 9.16667 0.0289307C4.8675 0.0289307 0.916667 3.67893 0.916667 9.30893C0.366667 9.64893 0 10.2889 0 11.0289V13.0289C0 14.1289 0.825 15.0289 1.83333 15.0289H2.75V8.92893C2.75 5.05893 5.61917 1.92893 9.16667 1.92893C12.7142 1.92893 15.5833 5.05893 15.5833 8.92893V16.0289H8.25V18.0289H15.5833C16.5917 18.0289 17.4167 17.1289 17.4167 16.0289V14.8089C17.9575 14.4989 18.3333 13.8889 18.3333 13.1689V10.8689C18.3333 10.1689 17.9575 9.55893 17.4167 9.24893Z" fill="#BF743B"/>
</svg>
