<svg width="15" height="21" viewBox="0 0 15 21" fill="none" xmlns="http://www.w3.org/2000/svg">
<path d="M12.9306 4.16666H11.0833C11.0833 1.95666 9.43007 0.166656 7.38889 0.166656C5.34771 0.166656 3.69444 1.95666 3.69444 4.16666H1.84722C0.83125 4.16666 0 5.06666 0 6.16666V18.1667C0 19.2667 0.83125 20.1667 1.84722 20.1667H12.9306C13.9465 20.1667 14.7778 19.2667 14.7778 18.1667V6.16666C14.7778 5.06666 13.9465 4.16666 12.9306 4.16666ZM5.54167 8.16666C5.54167 8.71666 5.12604 9.16666 4.61805 9.16666C4.11007 9.16666 3.69444 8.71666 3.69444 8.16666V6.16666H5.54167V8.16666ZM7.38889 2.16666C8.40486 2.16666 9.23611 3.06666 9.23611 4.16666H5.54167C5.54167 3.06666 6.37292 2.16666 7.38889 2.16666ZM11.0833 8.16666C11.0833 8.71666 10.6677 9.16666 10.1597 9.16666C9.65173 9.16666 9.23611 8.71666 9.23611 8.16666V6.16666H11.0833V8.16666Z" fill="#2A4178"/>
</svg>
