<svg width="18" height="21" viewBox="0 0 18 21" fill="none" xmlns="http://www.w3.org/2000/svg">
<path d="M15.1051 11.5099C15.1418 11.2099 15.1601 10.8999 15.1601 10.5699C15.1601 10.2499 15.1418 9.92994 15.096 9.62994L16.9568 8.04994C17.037 7.97784 17.0918 7.87764 17.1119 7.76641C17.1319 7.65518 17.116 7.53981 17.0668 7.43994L15.3068 4.11994C15.255 4.01951 15.1723 3.94232 15.0733 3.90205C14.9743 3.86178 14.8654 3.86104 14.766 3.89994L12.5751 4.85994C12.1168 4.47994 11.631 4.15994 11.0901 3.91994L10.7601 1.37994C10.7439 1.26547 10.6906 1.16115 10.6099 1.08592C10.5291 1.01069 10.4263 0.969539 10.3201 0.969943H6.80015C6.58015 0.969943 6.40598 1.13994 6.36931 1.37994L6.03932 3.91994C5.49848 4.15994 5.00348 4.48994 4.55432 4.85994L2.36348 3.89994C2.16181 3.81994 1.93265 3.89994 1.82265 4.11994L0.0718145 7.43994C-0.0381855 7.64994 -0.00151898 7.90994 0.181814 8.04994L2.04265 9.62994C1.99681 9.92994 1.96015 10.2599 1.96015 10.5699C1.96015 10.8799 1.97848 11.2099 2.02431 11.5099L0.163481 13.0899C0.0832947 13.162 0.0285052 13.2622 0.00844754 13.3735C-0.0116102 13.4847 0.00430492 13.6001 0.0534812 13.6999L1.81348 17.0199C1.92348 17.2399 2.15265 17.3099 2.35431 17.2399L4.54515 16.2799C5.00348 16.6599 5.48932 16.9799 6.03015 17.2199L6.36015 19.7599C6.40598 19.9999 6.58015 20.1699 6.80015 20.1699H10.3201C10.5401 20.1699 10.7235 19.9999 10.751 19.7599L11.081 17.2199C11.6218 16.9799 12.1168 16.6599 12.566 16.2799L14.7568 17.2399C14.9585 17.3199 15.1876 17.2399 15.2976 17.0199L17.0576 13.6999C17.1677 13.4799 17.1218 13.2299 16.9476 13.0899L15.1051 11.5099ZM8.56015 14.1699C6.74515 14.1699 5.26015 12.5499 5.26015 10.5699C5.26015 8.58994 6.74515 6.96994 8.56015 6.96994C10.3751 6.96994 11.8601 8.58994 11.8601 10.5699C11.8601 12.5499 10.3751 14.1699 8.56015 14.1699Z" fill="#2A4178"/>
</svg>
