<svg width="17" height="19" viewBox="0 0 17 19" fill="none" xmlns="http://www.w3.org/2000/svg">
<path d="M0.923611 10.57H6.46528C6.97326 10.57 7.38889 10.12 7.38889 9.56995V1.56995C7.38889 1.01995 6.97326 0.569954 6.46528 0.569954H0.923611C0.415625 0.569954 0 1.01995 0 1.56995V9.56995C0 10.12 0.415625 10.57 0.923611 10.57ZM0.923611 18.57H6.46528C6.97326 18.57 7.38889 18.12 7.38889 17.57V13.57C7.38889 13.02 6.97326 12.57 6.46528 12.57H0.923611C0.415625 12.57 0 13.02 0 13.57V17.57C0 18.12 0.415625 18.57 0.923611 18.57ZM10.1597 18.57H15.7014C16.2094 18.57 16.625 18.12 16.625 17.57V9.56995C16.625 9.01995 16.2094 8.56995 15.7014 8.56995H10.1597C9.65173 8.56995 9.23611 9.01995 9.23611 9.56995V17.57C9.23611 18.12 9.65173 18.57 10.1597 18.57ZM9.23611 1.56995V5.56995C9.23611 6.11995 9.65173 6.56995 10.1597 6.56995H15.7014C16.2094 6.56995 16.625 6.11995 16.625 5.56995V1.56995C16.625 1.01995 16.2094 0.569954 15.7014 0.569954H10.1597C9.65173 0.569954 9.23611 1.01995 9.23611 1.56995Z" fill="#2A4178"/>
</svg>
