<svg width="18" height="20" viewBox="0 0 18 20" fill="none" xmlns="http://www.w3.org/2000/svg">
<path d="M15.1051 10.6578C15.1418 10.3578 15.1601 10.0478 15.1601 9.71783C15.1601 9.39783 15.1418 9.07783 15.096 8.77783L16.9568 7.19783C17.037 7.12573 17.0918 7.02553 17.1119 6.9143C17.1319 6.80307 17.116 6.68769 17.0668 6.58783L15.3068 3.26783C15.255 3.1674 15.1723 3.09021 15.0733 3.04994C14.9743 3.00967 14.8654 3.00893 14.766 3.04783L12.5751 4.00783C12.1168 3.62783 11.631 3.30783 11.0901 3.06783L10.7601 0.527831C10.7439 0.413361 10.6906 0.309038 10.6099 0.233807C10.5291 0.158576 10.4263 0.117427 10.3201 0.117831H6.80015C6.58015 0.117831 6.40598 0.287831 6.36931 0.527831L6.03932 3.06783C5.49848 3.30783 5.00348 3.63783 4.55432 4.00783L2.36348 3.04783C2.16181 2.96783 1.93265 3.04783 1.82265 3.26783L0.0718145 6.58783C-0.0381855 6.79783 -0.00151898 7.05783 0.181814 7.19783L2.04265 8.77783C1.99681 9.07783 1.96015 9.40783 1.96015 9.71783C1.96015 10.0278 1.97848 10.3578 2.02431 10.6578L0.163481 12.2378C0.0832947 12.3099 0.0285052 12.4101 0.00844754 12.5214C-0.0116102 12.6326 0.00430492 12.748 0.0534812 12.8478L1.81348 16.1678C1.92348 16.3878 2.15265 16.4578 2.35431 16.3878L4.54515 15.4278C5.00348 15.8078 5.48932 16.1278 6.03015 16.3678L6.36015 18.9078C6.40598 19.1478 6.58015 19.3178 6.80015 19.3178H10.3201C10.5401 19.3178 10.7235 19.1478 10.751 18.9078L11.081 16.3678C11.6218 16.1278 12.1168 15.8078 12.566 15.4278L14.7568 16.3878C14.9585 16.4678 15.1876 16.3878 15.2976 16.1678L17.0576 12.8478C17.1677 12.6278 17.1218 12.3778 16.9476 12.2378L15.1051 10.6578ZM8.56015 13.3178C6.74515 13.3178 5.26015 11.6978 5.26015 9.71783C5.26015 7.73783 6.74515 6.11783 8.56015 6.11783C10.3751 6.11783 11.8601 7.73783 11.8601 9.71783C11.8601 11.6978 10.3751 13.3178 8.56015 13.3178Z" fill="#BF743B"/>
</svg>
