<svg width="48" height="63" viewBox="0 0 48 63" fill="none" xmlns="http://www.w3.org/2000/svg">
<path d="M23.1104 51.6556C20.994 53.0708 19.9385 56.4148 20.7413 59.1025C21.5441 61.7901 23.9134 62.8441 26.0298 61.4289C28.1462 60.0137 29.2209 56.6568 28.4181 53.9691C27.6153 51.2815 25.2268 50.2404 23.1104 51.6556ZM0.618759 22.725C1.02017 24.0689 2.2144 24.5894 3.2726 23.8818L5.19661 22.5952L17.6625 36.5085L16.8459 44.207C16.4194 48.4203 19.4561 51.1678 22.3806 49.2122L43.5446 35.0602C44.6028 34.3526 45.1402 32.6742 44.7388 31.3303C44.3374 29.9865 43.1431 29.4659 42.0849 30.1736L20.9209 44.3256L21.5776 38.0238L35.9114 28.439C37.3544 27.474 38.325 25.6232 38.5267 23.6709L40.678 3.20785C40.7295 2.72908 40.6879 2.25576 40.5573 1.83472C40.4268 1.41369 40.2117 1.05953 39.9335 0.807302C39.6553 0.555073 39.3236 0.41351 38.9711 0.396624C38.6186 0.379741 38.2577 0.488118 37.9239 0.711031L9.44866 19.752L7.1159 17.12C6.83669 16.8063 6.48641 16.6177 6.10607 16.5761C5.72572 16.5345 5.33106 16.6417 4.96829 16.8852L1.81292 18.9951C0.754719 19.7028 0.217346 21.3812 0.618759 22.725ZM42.3504 38.7901C40.234 40.2053 39.1785 43.5493 39.9814 46.237C40.7842 48.9246 43.1534 49.9786 45.2698 48.5634C47.3862 47.1482 48.461 43.7913 47.6581 41.1036C46.8553 38.416 44.4668 37.3749 42.3504 38.7901Z" fill="white" fill-opacity="0.13"/>
</svg>
