<svg width="49" height="63" viewBox="0 0 49 63" fill="none" xmlns="http://www.w3.org/2000/svg">
<path d="M23.5936 51.6556C21.4772 53.0708 20.4217 56.4148 21.2245 59.1025C22.0273 61.7901 24.3965 62.8441 26.5129 61.4289C28.6293 60.0137 29.7041 56.6568 28.9013 53.9691C28.0984 51.2815 25.71 50.2404 23.5936 51.6556ZM1.10191 22.725C1.50333 24.0689 2.69756 24.5894 3.75576 23.8818L5.67976 22.5952L18.1457 36.5085L17.3291 44.207C16.9025 48.4203 19.9392 51.1678 22.8637 49.2122L44.0278 35.0602C45.086 34.3526 45.6233 32.6742 45.2219 31.3303C44.8205 29.9865 43.6263 29.4659 42.5681 30.1736L21.404 44.3256L22.0608 38.0238L36.3946 28.439C37.8376 27.474 38.8082 25.6232 39.0099 23.6709L41.1611 3.20785C41.2126 2.72908 41.1711 2.25576 41.0405 1.83472C40.9099 1.41369 40.6949 1.05953 40.4167 0.807301C40.1385 0.555072 39.8067 0.41351 39.4542 0.396625C39.1018 0.379741 38.7408 0.488117 38.4071 0.711032L9.93181 19.752L7.59905 17.12C7.31984 16.8063 6.96956 16.6177 6.58922 16.5761C6.20888 16.5345 5.81422 16.6417 5.45144 16.8852L2.29607 18.9951C1.23787 19.7028 0.7005 21.3812 1.10191 22.725ZM42.8336 38.7901C40.7172 40.2053 39.6617 43.5493 40.4645 46.237C41.2673 48.9246 43.6366 49.9786 45.753 48.5634C47.8694 47.1482 48.9441 43.7913 48.1413 41.1036C47.3385 38.416 44.95 37.3749 42.8336 38.7901Z" fill="white" fill-opacity="0.13"/>
</svg>
