<svg width="55" height="43" viewBox="0 0 55 43" fill="none" xmlns="http://www.w3.org/2000/svg">
<path d="M43.5868 3.62637L37.9312 6.49216L37.2302 2.68108C36.8447 0.584982 34.4933 -0.0983203 32.0048 1.16263L4.85776 14.9184C2.36928 16.1794 0.648669 18.926 1.03418 21.0221L4.18835 38.172C4.57386 40.2681 6.92531 40.9514 9.41379 39.6904C9.99556 42.8536 13.4966 43.871 17.2519 41.9681C21.0073 40.0652 23.5691 35.9757 22.9873 32.8125L36.5608 25.9346C37.1426 29.0978 40.6437 30.1152 44.399 28.2123C48.1543 26.3094 50.7161 22.2199 50.1344 19.0568L52.3966 17.9104C53.6409 17.28 54.5012 15.9066 54.3084 14.8586L53.1414 8.51313C52.9907 7.69375 52.5268 7.05391 51.8159 6.68501L45.5368 3.47153C45.0194 3.21294 44.2881 3.27101 43.5868 3.62637ZM16.551 38.157C15.3068 38.7875 14.1311 38.4458 13.9383 37.3978C13.7455 36.3498 14.6058 34.9764 15.8501 34.3459C17.0943 33.7155 18.27 34.0571 18.4628 35.1052C18.6556 36.1532 17.7953 37.5265 16.551 38.157ZM44.1125 6.48468L49.4227 9.00175L39.333 14.1143L38.4569 9.35046L44.1125 6.48468ZM43.6981 24.4012C42.4538 25.0317 41.2781 24.6901 41.0853 23.642C40.8926 22.594 41.7529 21.2206 42.9971 20.5902C44.2414 19.9597 45.4171 20.3013 45.6099 21.3494C45.8026 22.3974 44.9423 23.7708 43.6981 24.4012Z" fill="white" fill-opacity="0.13"/>
</svg>
