<svg width="35" height="43" viewBox="0 0 35 43" fill="none" xmlns="http://www.w3.org/2000/svg">
<path d="M10.4143 6.28727C10.8726 6.06266 11.3936 6.04385 11.8645 6.23492C12.3354 6.42599 12.7184 6.81156 12.9304 7.30816C13.1425 7.80477 13.1666 8.37244 12.9976 8.88829C12.8285 9.40414 12.4799 9.82665 12.0272 10.0644C9.2647 11.463 7.02298 13.8479 5.673 16.8245C4.32302 19.8011 3.9457 23.1909 4.60345 26.4331C5.26121 29.6752 6.91462 32.5754 9.29012 34.6538C11.6656 36.7321 14.6208 37.8641 17.6667 37.8623C20.7087 37.8614 23.6596 36.73 26.0323 34.6548C28.405 32.5795 30.0579 29.6844 30.7181 26.4472C31.3783 23.21 31.0064 19.8242 29.6638 16.8485C28.3212 13.8727 26.0881 11.4848 23.333 10.0789C23.1056 9.96294 22.9014 9.79925 22.7321 9.59723C22.5627 9.3952 22.4316 9.15879 22.346 8.90149C22.1733 8.38186 22.197 7.8087 22.4119 7.30811C22.6268 6.80751 23.0153 6.42048 23.4919 6.23217C23.9686 6.04385 24.4944 6.06967 24.9536 6.30394C27.9163 7.81349 30.4227 10.213 32.1784 13.2208C33.9342 16.2286 34.8666 19.72 34.8662 23.2852C34.8662 33.6394 27.1646 42.0289 17.6667 42.0289C8.16882 42.0289 0.467285 33.6373 0.467285 23.2873C0.466632 19.7148 1.4026 16.2166 3.16491 13.2047C4.92722 10.1928 7.44246 7.79274 10.4143 6.28727ZM17.6667 0.362274C18.1348 0.362341 18.5866 0.549683 18.9364 0.888764C19.2862 1.22785 19.5096 1.69508 19.5644 2.20186L19.5778 2.44561V17.0289C19.5777 17.5601 19.3916 18.0712 19.0573 18.4577C18.7231 18.8443 18.2661 19.077 17.7797 19.1084C17.2933 19.1398 16.8143 18.9675 16.4405 18.6266C16.0668 18.2858 15.8266 17.8022 15.7691 17.2748L15.7557 17.0289V2.44561C15.7557 1.89307 15.957 1.36317 16.3154 0.972468C16.6738 0.581767 17.1599 0.362274 17.6667 0.362274Z" fill="#BF743B"/>
</svg>
