<svg width="23" height="22" viewBox="0 0 23 22" fill="none" xmlns="http://www.w3.org/2000/svg">
<path d="M22.545 19.8394L22.2898 19.6141C21.5657 18.9685 20.9319 18.2282 20.4056 17.4132C19.8308 16.2883 19.4863 15.0599 19.3922 13.8V10.0892C19.3892 9.63846 19.349 9.18874 19.2721 8.7446C18.0006 8.48307 16.8585 7.78988 16.0391 6.78237C15.2197 5.77487 14.7734 4.51496 14.7757 3.21596V2.74272C13.992 2.35676 13.1499 2.10296 12.2836 1.99155V1.04507C12.2836 0.779105 12.178 0.524035 11.99 0.33597C11.8021 0.147905 11.5472 0.0422516 11.2814 0.0422516C11.0157 0.0422516 10.7608 0.147905 10.5728 0.33597C10.3849 0.524035 10.2793 0.779105 10.2793 1.04507V2.02911C8.33942 2.30295 6.56402 3.26985 5.28089 4.75131C3.99776 6.23277 3.29354 8.12875 3.29825 10.0892V13.8C3.20424 15.0599 2.8597 16.2883 2.28487 17.4132C1.76758 18.2262 1.14403 18.9664 0.430759 19.6141L0.175537 19.8394V21.9578H22.545V19.8394Z" fill="#3692EB"/>
</svg>
