<svg width="53" height="63" viewBox="0 0 53 63" fill="none" xmlns="http://www.w3.org/2000/svg">
<path d="M21.7111 51.9709C18.9747 53.3573 17.1487 56.7411 17.6228 59.5057C18.0969 62.2704 20.6988 63.4106 23.4352 62.0241C26.1716 60.6376 28.0226 57.2413 27.5485 54.4766C27.0744 51.712 24.4476 50.5844 21.7111 51.9709ZM0.319939 21.8337C0.557001 23.2161 1.8704 23.7799 3.23861 23.0866L5.72625 21.8262L17.9532 36.3647L15.6466 44.1988C14.4082 48.4867 17.4989 51.3734 21.2801 49.4576L48.6442 35.593C50.0124 34.8997 50.9379 33.2016 50.7008 31.8192C50.4638 30.4369 49.1504 29.8731 47.7822 30.5663L20.4181 44.4309L22.2924 38.0179L40.8254 28.6278C42.6911 27.6824 44.1563 25.8201 44.7348 23.8333L50.8433 3.00965C50.9876 2.52248 51.0214 2.03832 50.9415 1.60509C50.8616 1.17187 50.6707 0.804587 50.3876 0.539598C50.1045 0.274608 49.7391 0.121093 49.3276 0.0942455C48.916 0.0673974 48.4726 0.168146 48.0411 0.386522L11.2239 19.0407L8.94086 16.2911C8.66736 15.9634 8.28842 15.7613 7.8484 15.7085C7.40838 15.6557 6.92551 15.7544 6.4563 15.9929L2.37656 18.06C1.00836 18.7532 0.0828767 20.4514 0.319939 21.8337ZM46.5876 39.3667C43.8512 40.7532 42.0251 44.1369 42.4992 46.9015C42.9733 49.6662 45.5753 50.8064 48.3117 49.4199C51.0481 48.0335 52.8991 44.6371 52.4249 41.8725C51.9508 39.1078 49.324 37.9802 46.5876 39.3667Z" fill="white" fill-opacity="0.13"/>
</svg>
