<svg width="17" height="19" viewBox="0 0 17 19" fill="none" xmlns="http://www.w3.org/2000/svg">
<path d="M0.923611 10.1667H6.46528C6.97326 10.1667 7.38889 9.71666 7.38889 9.16666V1.16666C7.38889 0.616664 6.97326 0.166664 6.46528 0.166664H0.923611C0.415625 0.166664 0 0.616664 0 1.16666V9.16666C0 9.71666 0.415625 10.1667 0.923611 10.1667ZM0.923611 18.1667H6.46528C6.97326 18.1667 7.38889 17.7167 7.38889 17.1667V13.1667C7.38889 12.6167 6.97326 12.1667 6.46528 12.1667H0.923611C0.415625 12.1667 0 12.6167 0 13.1667V17.1667C0 17.7167 0.415625 18.1667 0.923611 18.1667ZM10.1597 18.1667H15.7014C16.2094 18.1667 16.625 17.7167 16.625 17.1667V9.16666C16.625 8.61666 16.2094 8.16666 15.7014 8.16666H10.1597C9.65173 8.16666 9.23611 8.61666 9.23611 9.16666V17.1667C9.23611 17.7167 9.65173 18.1667 10.1597 18.1667ZM9.23611 1.16666V5.16666C9.23611 5.71666 9.65173 6.16666 10.1597 6.16666H15.7014C16.2094 6.16666 16.625 5.71666 16.625 5.16666V1.16666C16.625 0.616664 16.2094 0.166664 15.7014 0.166664H10.1597C9.65173 0.166664 9.23611 0.616664 9.23611 1.16666Z" fill="#2A4178"/>
</svg>
