<svg width="36" height="43" viewBox="0 0 36 43" fill="none" xmlns="http://www.w3.org/2000/svg">
<path d="M10.9143 6.47618C11.3726 6.25156 11.8936 6.23275 12.3645 6.42382C12.8354 6.61489 13.2184 7.00046 13.4304 7.49707C13.6425 7.99367 13.6666 8.56134 13.4976 9.07719C13.3285 9.59304 12.9799 10.0156 12.5272 10.2533C9.7647 11.6519 7.52298 14.0368 6.173 17.0134C4.82302 19.99 4.4457 23.3798 5.10345 26.622C5.76121 29.8641 7.41462 32.7643 9.79012 34.8427C12.1656 36.921 15.1208 38.053 18.1667 38.0512C21.2087 38.0503 24.1596 36.9189 26.5323 34.8437C28.905 32.7684 30.5579 29.8733 31.2181 26.6361C31.8783 23.399 31.5064 20.0131 30.1638 17.0374C28.8212 14.0616 26.5881 11.6737 23.833 10.2678C23.6056 10.1518 23.4014 9.98816 23.2321 9.78613C23.0627 9.5841 22.9316 9.34769 22.846 9.0904C22.6733 8.57076 22.697 7.99761 22.9119 7.49701C23.1268 6.99642 23.5153 6.60939 23.9919 6.42107C24.4686 6.23275 24.9944 6.25857 25.4536 6.49285C28.4163 8.00239 30.9227 10.4019 32.6784 13.4097C34.4342 16.4175 35.3666 19.9089 35.3662 23.4741C35.3662 33.8283 27.6646 42.2178 18.1667 42.2178C8.66882 42.2178 0.967285 33.8262 0.967285 23.4762C0.966632 19.9037 1.9026 16.4055 3.66491 13.3936C5.42722 10.3817 7.94246 7.98164 10.9143 6.47618ZM18.1667 0.551178C18.6348 0.551245 19.0866 0.738587 19.4364 1.07767C19.7862 1.41675 20.0096 1.88399 20.0644 2.39076L20.0778 2.63451V17.2178C20.0777 17.749 19.8916 18.2601 19.5573 18.6466C19.2231 19.0332 18.7661 19.2659 18.2797 19.2973C17.7933 19.3287 17.3143 19.1564 16.9405 18.8155C16.5668 18.4747 16.3266 17.9911 16.2691 17.4637L16.2557 17.2178V2.63451C16.2557 2.08198 16.457 1.55207 16.8154 1.16137C17.1738 0.770671 17.6599 0.551178 18.1667 0.551178Z" fill="#BF743B"/>
</svg>
