<svg width="54" height="60" viewBox="0 0 54 60" fill="none" xmlns="http://www.w3.org/2000/svg">
<path d="M32.8055 2.22737L27.9419 5.47924C25.5574 0.373073 19.2731 -0.852266 13.8988 2.74105C8.5245 6.33437 6.10291 13.3806 8.48742 18.4867L3.62381 21.7386C0.948819 23.5271 -0.26874 27.0699 0.918121 29.6115L13.8657 57.3373C15.0525 59.8788 18.2122 60.4949 20.8872 58.7064L50.0689 39.1951C52.7439 37.4066 53.9615 33.8638 52.7746 31.3223L39.827 3.59646C38.6402 1.05493 35.4805 0.43884 32.8055 2.22737ZM17.6669 24.4768C18.2603 25.7476 17.6515 27.519 16.3141 28.4132C14.9766 29.3075 13.3967 28.9994 12.8033 27.7287L10.6454 23.1077L15.509 19.8558L17.6669 24.4768ZM16.0567 7.36202C18.7317 5.57349 21.8914 6.18958 23.0783 8.73111L13.351 15.2349C12.1642 12.6933 13.3817 9.15055 16.0567 7.36202ZM32.2577 14.7212C32.8512 15.9919 32.2424 17.7633 30.9049 18.6576C29.5674 19.5519 27.9876 19.2438 27.3941 17.9731L25.2362 13.3521L30.0998 10.1002L32.2577 14.7212Z" fill="white" fill-opacity="0.13"/>
</svg>
