<svg width="15" height="21" viewBox="0 0 15 21" fill="none" xmlns="http://www.w3.org/2000/svg">
<path d="M12.9306 4.52893H11.0833C11.0833 2.31893 9.43007 0.528931 7.38889 0.528931C5.34771 0.528931 3.69444 2.31893 3.69444 4.52893H1.84722C0.83125 4.52893 0 5.42893 0 6.52893V18.5289C0 19.6289 0.83125 20.5289 1.84722 20.5289H12.9306C13.9465 20.5289 14.7778 19.6289 14.7778 18.5289V6.52893C14.7778 5.42893 13.9465 4.52893 12.9306 4.52893ZM5.54167 8.52893C5.54167 9.07893 5.12604 9.52893 4.61805 9.52893C4.11007 9.52893 3.69444 9.07893 3.69444 8.52893V6.52893H5.54167V8.52893ZM7.38889 2.52893C8.40486 2.52893 9.23611 3.42893 9.23611 4.52893H5.54167C5.54167 3.42893 6.37292 2.52893 7.38889 2.52893ZM11.0833 8.52893C11.0833 9.07893 10.6677 9.52893 10.1597 9.52893C9.65173 9.52893 9.23611 9.07893 9.23611 8.52893V6.52893H11.0833V8.52893Z" fill="#BF743B"/>
</svg>
