<svg width="54" height="60" viewBox="0 0 54 60" fill="none" xmlns="http://www.w3.org/2000/svg">
<path d="M33.139 2.22737L28.2754 5.47924C25.8909 0.373073 19.6066 -0.852266 14.2323 2.74105C8.858 6.33437 6.43641 13.3806 8.82092 18.4867L3.9573 21.7386C1.28232 23.5271 0.0647566 27.0699 1.25162 29.6115L14.1992 57.3373C15.386 59.8788 18.5457 60.4949 21.2207 58.7064L50.4024 39.1951C53.0774 37.4066 54.295 33.8638 53.1081 31.3223L40.1605 3.59646C38.9737 1.05493 35.814 0.43884 33.139 2.22737ZM18.0004 24.4768C18.5938 25.7476 17.985 27.519 16.6475 28.4132C15.3101 29.3075 13.7302 28.9994 13.1368 27.7287L10.9788 23.1077L15.8425 19.8558L18.0004 24.4768ZM16.3902 7.36202C19.0652 5.57349 22.2249 6.18958 23.4118 8.73111L13.6845 15.2349C12.4977 12.6933 13.7152 9.15055 16.3902 7.36202ZM32.5912 14.7212C33.1847 15.9919 32.5759 17.7633 31.2384 18.6576C29.9009 19.5519 28.3211 19.2438 27.7276 17.9731L25.5697 13.3521L30.4333 10.1002L32.5912 14.7212Z" fill="white" fill-opacity="0.13"/>
</svg>
