<svg width="35" height="43" viewBox="0 0 35 43" fill="none" xmlns="http://www.w3.org/2000/svg">
<path d="M10.4143 6.33812C10.8726 6.1135 11.3936 6.09469 11.8645 6.28576C12.3354 6.47683 12.7184 6.8624 12.9304 7.359C13.1425 7.85561 13.1666 8.42328 12.9976 8.93913C12.8285 9.45498 12.4799 9.87749 12.0272 10.1152C9.2647 11.5139 7.02298 13.8988 5.673 16.8753C4.32302 19.8519 3.9457 23.2417 4.60345 26.4839C5.26121 29.7261 6.91462 32.6263 9.29012 34.7046C11.6656 36.783 14.6208 37.9149 17.6667 37.9131C20.7087 37.9123 23.6596 36.7809 26.0323 34.7056C28.405 32.6304 30.0579 29.7353 30.7181 26.4981C31.3783 23.2609 31.0064 19.8751 29.6638 16.8993C28.3212 13.9235 26.0881 11.5357 23.333 10.1298C23.1056 10.0138 22.9014 9.85009 22.7321 9.64807C22.5627 9.44604 22.4316 9.20963 22.346 8.95234C22.1733 8.4327 22.197 7.85955 22.4119 7.35895C22.6268 6.85835 23.0153 6.47133 23.4919 6.28301C23.9686 6.09469 24.4944 6.12051 24.9536 6.35478C27.9163 7.86433 30.4227 10.2638 32.1784 13.2716C33.9342 16.2795 34.8666 19.7708 34.8662 23.336C34.8662 33.6902 27.1646 42.0798 17.6667 42.0798C8.16882 42.0798 0.467285 33.6881 0.467285 23.3381C0.466632 19.7657 1.4026 16.2674 3.16491 13.2555C4.92722 10.2436 7.44246 7.84358 10.4143 6.33812ZM17.6667 0.413116C18.1348 0.413184 18.5866 0.600525 18.9364 0.939607C19.2862 1.27869 19.5096 1.74593 19.5644 2.2527L19.5778 2.49645V17.0798C19.5777 17.611 19.3916 18.1221 19.0573 18.5086C18.7231 18.8951 18.2661 19.1278 17.7797 19.1592C17.2933 19.1906 16.8143 19.0183 16.4405 18.6775C16.0668 18.3367 15.8266 17.8531 15.7691 17.3256L15.7557 17.0798V2.49645C15.7557 1.94392 15.957 1.41401 16.3154 1.02331C16.6738 0.63261 17.1599 0.413116 17.6667 0.413116Z" fill="#BF743B"/>
</svg>
