<svg width="19" height="21" viewBox="0 0 19 21" fill="none" xmlns="http://www.w3.org/2000/svg">
<path d="M5.54167 16.5289C4.52569 16.5289 3.70368 17.4289 3.70368 18.5289C3.70368 19.6289 4.52569 20.5289 5.54167 20.5289C6.55764 20.5289 7.38889 19.6289 7.38889 18.5289C7.38889 17.4289 6.55764 16.5289 5.54167 16.5289ZM0 1.52893C0 2.07893 0.415625 2.52893 0.923611 2.52893H1.84722L5.17222 10.1189L3.92535 12.5589C3.25111 13.8989 4.13778 15.5289 5.54167 15.5289H15.7014C16.2094 15.5289 16.625 15.0789 16.625 14.5289C16.625 13.9789 16.2094 13.5289 15.7014 13.5289H5.54167L6.55764 11.5289H13.4385C14.1312 11.5289 14.7408 11.1189 15.0549 10.4989L18.3614 4.00893C18.4392 3.85736 18.4792 3.6864 18.4772 3.51299C18.4753 3.33957 18.4316 3.1697 18.3504 3.02019C18.2693 2.87068 18.1534 2.74671 18.0144 2.66055C17.8754 2.57439 17.718 2.52902 17.5578 2.52893H3.8884L3.26958 1.09893C3.19535 0.928238 3.07775 0.783972 2.93053 0.683025C2.78332 0.582078 2.61259 0.528628 2.43833 0.528932H0.923611C0.415625 0.528932 0 0.978932 0 1.52893ZM14.7778 16.5289C13.7618 16.5289 12.9398 17.4289 12.9398 18.5289C12.9398 19.6289 13.7618 20.5289 14.7778 20.5289C15.7937 20.5289 16.625 19.6289 16.625 18.5289C16.625 17.4289 15.7937 16.5289 14.7778 16.5289Z" fill="#BF743B"/>
</svg>
