<svg width="79" height="73" viewBox="0 0 79 73" fill="none" xmlns="http://www.w3.org/2000/svg">
<path d="M59.5262 11.2335L51.8524 14.0993L49.9532 6.48858C48.9086 2.30271 45.2913 -0.0904151 41.9149 1.17053L5.08047 14.9263C1.70398 16.1873 -0.203937 20.6438 0.840644 24.8296L9.38721 59.0777C10.4318 63.2636 14.049 65.6567 17.4255 64.3958C19.0019 70.7126 24.3875 74.2757 29.483 72.3728C34.5784 70.4699 37.4191 63.8347 35.8427 57.5179L54.2599 50.64C55.8363 56.9568 61.2219 60.5199 66.3173 58.617C71.4128 56.7142 74.2535 50.0789 72.6771 43.7621L75.7466 42.6158C77.4349 41.9853 78.3888 39.757 77.8665 37.6641L74.7043 24.9923C74.296 23.356 73.4674 21.9183 72.3369 20.8844L62.3617 11.8386C61.5411 11.105 60.4778 10.8781 59.5262 11.2335ZM27.5837 64.7621C25.8955 65.3926 24.0869 64.1961 23.5646 62.1031C23.0423 60.0102 23.9962 57.7819 25.6845 57.1515C27.3727 56.521 29.1813 57.7176 29.7036 59.8105C30.2259 61.9034 29.272 64.1317 27.5837 64.7621ZM60.9506 16.9415L69.341 24.2081L55.6509 29.3206L53.2768 19.8073L60.9506 16.9415ZM64.4181 51.0064C62.7299 51.6368 60.9212 50.4403 60.399 48.3473C59.8767 46.2544 60.8306 44.0262 62.5189 43.3957C64.2071 42.7652 66.0157 43.9618 66.538 46.0547C67.0603 48.1476 66.1064 50.3759 64.4181 51.0064Z" fill="white" fill-opacity="0.13"/>
</svg>
