<svg width="19" height="19" viewBox="0 0 19 19" fill="none" xmlns="http://www.w3.org/2000/svg">
<path d="M17.4167 9.29977C17.4167 3.80977 13.5117 0.0797729 9.16667 0.0797729C4.8675 0.0797729 0.916667 3.72977 0.916667 9.35977C0.366667 9.69977 0 10.3398 0 11.0798V13.0798C0 14.1798 0.825 15.0798 1.83333 15.0798H2.75V8.97977C2.75 5.10977 5.61917 1.97977 9.16667 1.97977C12.7142 1.97977 15.5833 5.10977 15.5833 8.97977V16.0798H8.25V18.0798H15.5833C16.5917 18.0798 17.4167 17.1798 17.4167 16.0798V14.8598C17.9575 14.5498 18.3333 13.9398 18.3333 13.2198V10.9198C18.3333 10.2198 17.9575 9.60977 17.4167 9.29977Z" fill="#BF743B"/>
</svg>
