<svg width="49" height="63" viewBox="0 0 49 63" fill="none" xmlns="http://www.w3.org/2000/svg">
<path d="M23.4437 51.6556C21.3273 53.0708 20.2718 56.4148 21.0746 59.1025C21.8774 61.7901 24.2466 62.8441 26.363 61.4289C28.4794 60.0137 29.5542 56.6568 28.7513 53.9691C27.9485 51.2815 25.5601 50.2404 23.4437 51.6556ZM0.952011 22.725C1.35342 24.0689 2.54765 24.5894 3.60586 23.8818L5.52986 22.5952L17.9958 36.5085L17.1792 44.207C16.7526 48.4203 19.7893 51.1678 22.7138 49.2122L43.8779 35.0602C44.9361 34.3526 45.4734 32.6742 45.072 31.3303C44.6706 29.9865 43.4764 29.4659 42.4182 30.1736L21.2541 44.3256L21.9109 38.0238L36.2447 28.439C37.6877 27.474 38.6583 25.6232 38.8599 23.6709L41.0112 3.20785C41.0627 2.72908 41.0212 2.25576 40.8906 1.83472C40.76 1.41369 40.545 1.05953 40.2668 0.807302C39.9886 0.555073 39.6568 0.41351 39.3043 0.396624C38.9519 0.379741 38.5909 0.488118 38.2572 0.711031L9.78191 19.752L7.44915 17.12C7.16994 16.8063 6.81966 16.6177 6.43932 16.5761C6.05898 16.5345 5.66431 16.6417 5.30154 16.8852L2.14617 18.9951C1.08797 19.7028 0.550598 21.3812 0.952011 22.725ZM42.6837 38.7901C40.5673 40.2053 39.5118 43.5493 40.3146 46.237C41.1174 48.9246 43.4867 49.9786 45.6031 48.5634C47.7195 47.1482 48.7942 43.7913 47.9914 41.1036C47.1886 38.416 44.8001 37.3749 42.6837 38.7901Z" fill="white" fill-opacity="0.13"/>
</svg>
