<svg width="19" height="19" viewBox="0 0 19 19" fill="none" xmlns="http://www.w3.org/2000/svg">
<path d="M17.4167 9.88663C17.4167 4.39663 13.5117 0.666626 9.16667 0.666626C4.8675 0.666626 0.916667 4.31663 0.916667 9.94663C0.366667 10.2866 0 10.9266 0 11.6666V13.6666C0 14.7666 0.825 15.6666 1.83333 15.6666H2.75V9.56663C2.75 5.69663 5.61917 2.56663 9.16667 2.56663C12.7142 2.56663 15.5833 5.69663 15.5833 9.56663V16.6666H8.25V18.6666H15.5833C16.5917 18.6666 17.4167 17.7666 17.4167 16.6666V15.4466C17.9575 15.1366 18.3333 14.5266 18.3333 13.8066V11.5066C18.3333 10.8066 17.9575 10.1966 17.4167 9.88663Z" fill="#1A6BBA"/>
</svg>
