<svg width="19" height="21" viewBox="0 0 19 21" fill="none" xmlns="http://www.w3.org/2000/svg">
<path d="M5.54167 16.5699C4.52569 16.5699 3.70368 17.4699 3.70368 18.5699C3.70368 19.6699 4.52569 20.5699 5.54167 20.5699C6.55764 20.5699 7.38889 19.6699 7.38889 18.5699C7.38889 17.4699 6.55764 16.5699 5.54167 16.5699ZM0 1.56995C0 2.11995 0.415625 2.56995 0.923611 2.56995H1.84722L5.17222 10.1599L3.92535 12.5999C3.25111 13.9399 4.13778 15.5699 5.54167 15.5699H15.7014C16.2094 15.5699 16.625 15.1199 16.625 14.5699C16.625 14.0199 16.2094 13.5699 15.7014 13.5699H5.54167L6.55764 11.5699H13.4385C14.1312 11.5699 14.7408 11.1599 15.0549 10.5399L18.3614 4.04995C18.4392 3.89837 18.4792 3.72742 18.4772 3.554C18.4753 3.38059 18.4316 3.21072 18.3504 3.06121C18.2693 2.9117 18.1534 2.78773 18.0144 2.70157C17.8754 2.6154 17.718 2.57003 17.5578 2.56995H3.8884L3.26958 1.13995C3.19535 0.969254 3.07775 0.824988 2.93053 0.724041C2.78332 0.623094 2.61259 0.569643 2.43833 0.569948H0.923611C0.415625 0.569948 0 1.01995 0 1.56995ZM14.7778 16.5699C13.7618 16.5699 12.9398 17.4699 12.9398 18.5699C12.9398 19.6699 13.7618 20.5699 14.7778 20.5699C15.7937 20.5699 16.625 19.6699 16.625 18.5699C16.625 17.4699 15.7937 16.5699 14.7778 16.5699Z" fill="#2A4178"/>
</svg>
