<svg width="15" height="21" viewBox="0 0 15 21" fill="none" xmlns="http://www.w3.org/2000/svg">
<path d="M12.9306 4.56995H11.0833C11.0833 2.35995 9.43007 0.569946 7.38889 0.569946C5.34771 0.569946 3.69444 2.35995 3.69444 4.56995H1.84722C0.83125 4.56995 0 5.46995 0 6.56995V18.5699C0 19.6699 0.83125 20.5699 1.84722 20.5699H12.9306C13.9465 20.5699 14.7778 19.6699 14.7778 18.5699V6.56995C14.7778 5.46995 13.9465 4.56995 12.9306 4.56995ZM5.54167 8.56995C5.54167 9.11995 5.12604 9.56995 4.61805 9.56995C4.11007 9.56995 3.69444 9.11995 3.69444 8.56995V6.56995H5.54167V8.56995ZM7.38889 2.56995C8.40486 2.56995 9.23611 3.46995 9.23611 4.56995H5.54167C5.54167 3.46995 6.37292 2.56995 7.38889 2.56995ZM11.0833 8.56995C11.0833 9.11995 10.6677 9.56995 10.1597 9.56995C9.65173 9.56995 9.23611 9.11995 9.23611 8.56995V6.56995H11.0833V8.56995Z" fill="#2A4178"/>
</svg>
