<svg width="17" height="19" viewBox="0 0 17 19" fill="none" xmlns="http://www.w3.org/2000/svg">
<path d="M0.923611 10.5798H6.46528C6.97326 10.5798 7.38889 10.1298 7.38889 9.57978V1.57978C7.38889 1.02978 6.97326 0.579781 6.46528 0.579781H0.923611C0.415625 0.579781 0 1.02978 0 1.57978V9.57978C0 10.1298 0.415625 10.5798 0.923611 10.5798ZM0.923611 18.5798H6.46528C6.97326 18.5798 7.38889 18.1298 7.38889 17.5798V13.5798C7.38889 13.0298 6.97326 12.5798 6.46528 12.5798H0.923611C0.415625 12.5798 0 13.0298 0 13.5798V17.5798C0 18.1298 0.415625 18.5798 0.923611 18.5798ZM10.1597 18.5798H15.7014C16.2094 18.5798 16.625 18.1298 16.625 17.5798V9.57978C16.625 9.02978 16.2094 8.57978 15.7014 8.57978H10.1597C9.65173 8.57978 9.23611 9.02978 9.23611 9.57978V17.5798C9.23611 18.1298 9.65173 18.5798 10.1597 18.5798ZM9.23611 1.57978V5.57978C9.23611 6.12978 9.65173 6.57978 10.1597 6.57978H15.7014C16.2094 6.57978 16.625 6.12978 16.625 5.57978V1.57978C16.625 1.02978 16.2094 0.579781 15.7014 0.579781H10.1597C9.65173 0.579781 9.23611 1.02978 9.23611 1.57978Z" fill="#BF743B"/>
</svg>
