<svg width="17" height="19" viewBox="0 0 17 19" fill="none" xmlns="http://www.w3.org/2000/svg">
<path d="M0.923611 10.7178H6.46528C6.97326 10.7178 7.38889 10.2678 7.38889 9.71784V1.71784C7.38889 1.16784 6.97326 0.717842 6.46528 0.717842H0.923611C0.415625 0.717842 0 1.16784 0 1.71784V9.71784C0 10.2678 0.415625 10.7178 0.923611 10.7178ZM0.923611 18.7178H6.46528C6.97326 18.7178 7.38889 18.2678 7.38889 17.7178V13.7178C7.38889 13.1678 6.97326 12.7178 6.46528 12.7178H0.923611C0.415625 12.7178 0 13.1678 0 13.7178V17.7178C0 18.2678 0.415625 18.7178 0.923611 18.7178ZM10.1597 18.7178H15.7014C16.2094 18.7178 16.625 18.2678 16.625 17.7178V9.71784C16.625 9.16784 16.2094 8.71784 15.7014 8.71784H10.1597C9.65173 8.71784 9.23611 9.16784 9.23611 9.71784V17.7178C9.23611 18.2678 9.65173 18.7178 10.1597 18.7178ZM9.23611 1.71784V5.71784C9.23611 6.26784 9.65173 6.71784 10.1597 6.71784H15.7014C16.2094 6.71784 16.625 6.26784 16.625 5.71784V1.71784C16.625 1.16784 16.2094 0.717842 15.7014 0.717842H10.1597C9.65173 0.717842 9.23611 1.16784 9.23611 1.71784Z" fill="#BF743B"/>
</svg>
