<svg width="19" height="21" viewBox="0 0 19 21" fill="none" xmlns="http://www.w3.org/2000/svg">
<path d="M5.54167 16.1667C4.52569 16.1667 3.70368 17.0667 3.70368 18.1667C3.70368 19.2667 4.52569 20.1667 5.54167 20.1667C6.55764 20.1667 7.38889 19.2667 7.38889 18.1667C7.38889 17.0667 6.55764 16.1667 5.54167 16.1667ZM0 1.16666C0 1.71666 0.415625 2.16666 0.923611 2.16666H1.84722L5.17222 9.75666L3.92535 12.1967C3.25111 13.5367 4.13778 15.1667 5.54167 15.1667H15.7014C16.2094 15.1667 16.625 14.7167 16.625 14.1667C16.625 13.6167 16.2094 13.1667 15.7014 13.1667H5.54167L6.55764 11.1667H13.4385C14.1312 11.1667 14.7408 10.7567 15.0549 10.1367L18.3614 3.64666C18.4392 3.49508 18.4792 3.32413 18.4772 3.15071C18.4753 2.9773 18.4316 2.80743 18.3504 2.65792C18.2693 2.50841 18.1534 2.38444 18.0144 2.29828C17.8754 2.21211 17.718 2.16674 17.5578 2.16666H3.8884L3.26958 0.736658C3.19535 0.565964 3.07775 0.421698 2.93053 0.320751C2.78332 0.219804 2.61259 0.166354 2.43833 0.166658H0.923611C0.415625 0.166658 0 0.616658 0 1.16666ZM14.7778 16.1667C13.7618 16.1667 12.9398 17.0667 12.9398 18.1667C12.9398 19.2667 13.7618 20.1667 14.7778 20.1667C15.7937 20.1667 16.625 19.2667 16.625 18.1667C16.625 17.0667 15.7937 16.1667 14.7778 16.1667Z" fill="#2A4178"/>
</svg>
