<svg width="18" height="20" viewBox="0 0 18 20" fill="none" xmlns="http://www.w3.org/2000/svg">
<path d="M15.1051 11.1067C15.1418 10.8067 15.1601 10.4967 15.1601 10.1667C15.1601 9.84665 15.1418 9.52665 15.096 9.22665L16.9568 7.64665C17.037 7.57455 17.0918 7.47435 17.1119 7.36312C17.1319 7.25189 17.116 7.13652 17.0668 7.03665L15.3068 3.71665C15.255 3.61622 15.1723 3.53903 15.0733 3.49876C14.9743 3.4585 14.8654 3.45775 14.766 3.49665L12.5751 4.45665C12.1168 4.07665 11.631 3.75665 11.0901 3.51665L10.7601 0.976653C10.7439 0.862183 10.6906 0.75786 10.6099 0.682629C10.5291 0.607398 10.4263 0.566249 10.3201 0.566653H6.80015C6.58015 0.566653 6.40598 0.736653 6.36931 0.976653L6.03932 3.51665C5.49848 3.75665 5.00348 4.08665 4.55432 4.45665L2.36348 3.49665C2.16181 3.41665 1.93265 3.49665 1.82265 3.71665L0.0718145 7.03665C-0.0381855 7.24665 -0.00151898 7.50665 0.181814 7.64665L2.04265 9.22665C1.99681 9.52665 1.96015 9.85665 1.96015 10.1667C1.96015 10.4767 1.97848 10.8067 2.02431 11.1067L0.163481 12.6867C0.0832947 12.7588 0.0285052 12.859 0.00844754 12.9702C-0.0116102 13.0814 0.00430492 13.1968 0.0534812 13.2967L1.81348 16.6167C1.92348 16.8367 2.15265 16.9067 2.35431 16.8367L4.54515 15.8767C5.00348 16.2567 5.48932 16.5767 6.03015 16.8167L6.36015 19.3567C6.40598 19.5967 6.58015 19.7667 6.80015 19.7667H10.3201C10.5401 19.7667 10.7235 19.5967 10.751 19.3567L11.081 16.8167C11.6218 16.5767 12.1168 16.2567 12.566 15.8767L14.7568 16.8367C14.9585 16.9167 15.1876 16.8367 15.2976 16.6167L17.0576 13.2967C17.1677 13.0767 17.1218 12.8267 16.9476 12.6867L15.1051 11.1067ZM8.56015 13.7667C6.74515 13.7667 5.26015 12.1467 5.26015 10.1667C5.26015 8.18665 6.74515 6.56665 8.56015 6.56665C10.3751 6.56665 11.8601 8.18665 11.8601 10.1667C11.8601 12.1467 10.3751 13.7667 8.56015 13.7667Z" fill="#2A4178"/>
</svg>
