<svg width="53" height="60" viewBox="0 0 53 60" fill="none" xmlns="http://www.w3.org/2000/svg">
<path d="M32.4722 2.22737L27.6086 5.47924C25.2241 0.373073 18.9398 -0.852266 13.5655 2.74105C8.19125 6.33437 5.76966 13.3806 8.15417 18.4867L3.29056 21.7386C0.615567 23.5271 -0.601991 27.0699 0.584869 29.6115L13.5324 57.3373C14.7193 59.8788 17.879 60.4949 20.554 58.7064L49.7357 39.1951C52.4107 37.4066 53.6282 33.8638 52.4414 31.3223L39.4938 3.59646C38.3069 1.05493 35.1472 0.43884 32.4722 2.22737ZM17.3336 24.4768C17.9271 25.7476 17.3183 27.519 15.9808 28.4132C14.6433 29.3075 13.0635 28.9994 12.47 27.7287L10.3121 23.1077L15.1757 19.8558L17.3336 24.4768ZM15.7235 7.36202C18.3985 5.57349 21.5582 6.18958 22.745 8.73111L13.0178 15.2349C11.8309 12.6933 13.0485 9.15055 15.7235 7.36202ZM31.9245 14.7212C32.5179 15.9919 31.9091 17.7633 30.5716 18.6576C29.2342 19.5519 27.6543 19.2438 27.0609 17.9731L24.9029 13.3521L29.7666 10.1002L31.9245 14.7212Z" fill="white" fill-opacity="0.13"/>
</svg>
