<svg width="35" height="43" viewBox="0 0 35 43" fill="none" xmlns="http://www.w3.org/2000/svg">
<path d="M10.5266 6.32829C10.9849 6.10367 11.5059 6.08486 11.9768 6.27593C12.4477 6.467 12.8307 6.85257 13.0427 7.34918C13.2548 7.84578 13.2789 8.41346 13.1099 8.9293C12.9408 9.44515 12.5922 9.86766 12.1395 10.1054C9.377 11.504 7.13528 13.8889 5.78531 16.8655C4.43533 19.8421 4.058 23.2319 4.71576 26.4741C5.37351 29.7162 7.02693 32.6164 9.40242 34.6948C11.7779 36.7731 14.7331 37.9051 17.779 37.9033C20.821 37.9024 23.7719 36.771 26.1446 34.6958C28.5174 32.6205 30.1702 29.7254 30.8304 26.4883C31.4906 23.2511 31.1187 19.8652 29.7761 16.8895C28.4335 13.9137 26.2004 11.5259 23.4453 10.12C23.2179 10.004 23.0137 9.84027 22.8444 9.63824C22.6751 9.43622 22.5439 9.1998 22.4583 8.94251C22.2856 8.42288 22.3093 7.84972 22.5242 7.34912C22.7391 6.84853 23.1276 6.4615 23.6043 6.27318C24.0809 6.08486 24.6067 6.11068 25.0659 6.34496C28.0286 7.8545 30.535 10.254 32.2907 13.2618C34.0465 16.2696 34.9789 19.761 34.9785 23.3262C34.9785 33.6804 27.277 42.07 17.779 42.07C8.28112 42.07 0.57959 33.6783 0.57959 23.3283C0.578937 19.7558 1.5149 16.2576 3.27721 13.2457C5.03953 10.2338 7.55476 7.83376 10.5266 6.32829ZM17.779 0.40329C18.2471 0.403357 18.6989 0.590699 19.0487 0.92978C19.3985 1.26886 19.6219 1.7361 19.6767 2.24287L19.6901 2.48662V17.07C19.69 17.6011 19.5039 18.1122 19.1696 18.4987C18.8354 18.8853 18.3784 19.118 17.892 19.1494C17.4056 19.1808 16.9266 19.0085 16.5528 18.6676C16.1791 18.3268 15.9389 17.8432 15.8814 17.3158L15.868 17.07V2.48662C15.868 1.93409 16.0693 1.40418 16.4277 1.01348C16.7861 0.622783 17.2722 0.40329 17.779 0.40329Z" fill="black"/>
</svg>
