<svg width="23" height="22" viewBox="0 0 23 22" fill="none" xmlns="http://www.w3.org/2000/svg">
<path d="M22.545 19.8395L22.2898 19.6141C21.5657 18.9685 20.9319 18.2282 20.4056 17.4132C19.8308 16.2883 19.4863 15.0599 19.3922 13.8V10.0892C19.3892 9.63848 19.349 9.18876 19.2721 8.74462C18.0006 8.48309 16.8585 7.78989 16.0391 6.78239C15.2197 5.77488 14.7734 4.51498 14.7757 3.21598V2.74274C13.992 2.35678 13.1499 2.10297 12.2836 1.99156V1.04508C12.2836 0.779121 12.178 0.52405 11.99 0.335985C11.8021 0.147921 11.5472 0.0422668 11.2814 0.0422668C11.0157 0.0422668 10.7608 0.147921 10.5728 0.335985C10.3849 0.52405 10.2793 0.779121 10.2793 1.04508V2.02912C8.33942 2.30297 6.56402 3.26987 5.28089 4.75133C3.99776 6.23278 3.29354 8.12876 3.29825 10.0892V13.8C3.20424 15.0599 2.8597 16.2883 2.28487 17.4132C1.76758 18.2262 1.14403 18.9664 0.430759 19.6141L0.175537 19.8395V21.9578H22.545V19.8395Z" fill="#3692EB"/>
</svg>
