<svg width="60" height="62" viewBox="0 0 60 62" fill="none" xmlns="http://www.w3.org/2000/svg">
<path d="M42.1649 2.85014L35.9441 6.00205C34.19 0.646484 27.2016 -0.870323 20.3276 2.61254C13.4536 6.0954 9.3067 13.2541 11.0608 18.6097L4.83994 21.7616C1.41849 23.4952 -0.66656 27.0945 0.206504 29.7602L9.73084 58.8402C10.6039 61.5059 14.1176 62.2685 17.5391 60.535L54.864 41.6235C58.2855 39.8899 60.3705 36.2906 59.4974 33.6249L49.9731 4.5449C49.1 1.87924 45.5863 1.11659 42.1649 2.85014ZM20.4564 25.1511C20.8929 26.484 19.8504 28.2836 18.1396 29.1504C16.4289 30.0172 14.6721 29.6359 14.2355 28.303L12.6482 23.4564L18.869 20.3045L20.4564 25.1511ZM21.915 7.45921C25.3365 5.72565 28.8502 6.4883 29.7232 9.15396L17.2816 15.4578C16.4085 12.7921 18.4936 9.19276 21.915 7.45921ZM39.1188 15.6954C39.5554 17.0282 38.5129 18.8279 36.8021 19.6947C35.0914 20.5615 33.3345 20.1801 32.898 18.8473L31.3106 14.0006L37.5315 10.8487L39.1188 15.6954Z" fill="white" fill-opacity="0.13"/>
</svg>
