<svg width="19" height="21" viewBox="0 0 19 21" fill="none" xmlns="http://www.w3.org/2000/svg">
<path d="M5.54167 16.5798C4.52569 16.5798 3.70368 17.4798 3.70368 18.5798C3.70368 19.6798 4.52569 20.5798 5.54167 20.5798C6.55764 20.5798 7.38889 19.6798 7.38889 18.5798C7.38889 17.4798 6.55764 16.5798 5.54167 16.5798ZM0 1.57977C0 2.12977 0.415625 2.57977 0.923611 2.57977H1.84722L5.17222 10.1698L3.92535 12.6098C3.25111 13.9498 4.13778 15.5798 5.54167 15.5798H15.7014C16.2094 15.5798 16.625 15.1298 16.625 14.5798C16.625 14.0298 16.2094 13.5798 15.7014 13.5798H5.54167L6.55764 11.5798H13.4385C14.1312 11.5798 14.7408 11.1698 15.0549 10.5498L18.3614 4.05977C18.4392 3.9082 18.4792 3.73725 18.4772 3.56383C18.4753 3.39041 18.4316 3.22055 18.3504 3.07104C18.2693 2.92153 18.1534 2.79756 18.0144 2.71139C17.8754 2.62523 17.718 2.57986 17.5578 2.57977H3.8884L3.26958 1.14977C3.19535 0.97908 3.07775 0.834815 2.93053 0.733868C2.78332 0.63292 2.61259 0.57947 2.43833 0.579774H0.923611C0.415625 0.579774 0 1.02977 0 1.57977ZM14.7778 16.5798C13.7618 16.5798 12.9398 17.4798 12.9398 18.5798C12.9398 19.6798 13.7618 20.5798 14.7778 20.5798C15.7937 20.5798 16.625 19.6798 16.625 18.5798C16.625 17.4798 15.7937 16.5798 14.7778 16.5798Z" fill="#BF743B"/>
</svg>
