<svg width="17" height="19" viewBox="0 0 17 19" fill="none" xmlns="http://www.w3.org/2000/svg">
<path d="M0.923611 10.5289H6.46528C6.97326 10.5289 7.38889 10.0789 7.38889 9.52894V1.52894C7.38889 0.978938 6.97326 0.528938 6.46528 0.528938H0.923611C0.415625 0.528938 0 0.978938 0 1.52894V9.52894C0 10.0789 0.415625 10.5289 0.923611 10.5289ZM0.923611 18.5289H6.46528C6.97326 18.5289 7.38889 18.0789 7.38889 17.5289V13.5289C7.38889 12.9789 6.97326 12.5289 6.46528 12.5289H0.923611C0.415625 12.5289 0 12.9789 0 13.5289V17.5289C0 18.0789 0.415625 18.5289 0.923611 18.5289ZM10.1597 18.5289H15.7014C16.2094 18.5289 16.625 18.0789 16.625 17.5289V9.52894C16.625 8.97894 16.2094 8.52894 15.7014 8.52894H10.1597C9.65173 8.52894 9.23611 8.97894 9.23611 9.52894V17.5289C9.23611 18.0789 9.65173 18.5289 10.1597 18.5289ZM9.23611 1.52894V5.52894C9.23611 6.07894 9.65173 6.52894 10.1597 6.52894H15.7014C16.2094 6.52894 16.625 6.07894 16.625 5.52894V1.52894C16.625 0.978938 16.2094 0.528938 15.7014 0.528938H10.1597C9.65173 0.528938 9.23611 0.978938 9.23611 1.52894Z" fill="#BF743B"/>
</svg>
