<svg width="21" height="21" viewBox="0 0 21 21" fill="none" xmlns="http://www.w3.org/2000/svg">
<path fill-rule="evenodd" clip-rule="evenodd" d="M14.8857 13.3985L20.2617 18.7783C20.4507 18.9676 20.5568 19.2242 20.5567 19.4917C20.5566 19.7592 20.4503 20.0157 20.2612 20.2048C20.0721 20.3939 19.8157 20.5001 19.5484 20.5C19.2811 20.4999 19.0247 20.3935 18.8358 20.2043L13.4597 14.8244C11.8526 16.0701 9.83171 16.6563 7.80806 16.4638C5.78441 16.2712 3.91006 15.3145 2.5663 13.7881C1.22255 12.2617 0.510336 10.2803 0.57455 8.24712C0.638764 6.2139 1.47458 4.28152 2.91197 2.8431C4.34936 1.40468 6.28035 0.568256 8.31211 0.503996C10.3439 0.439736 12.3238 1.15246 13.8491 2.49718C15.3744 3.8419 16.3304 5.71761 16.5228 7.74271C16.7152 9.76782 16.1294 11.7902 14.8847 13.3985H14.8857ZM8.56537 14.4994C10.1555 14.4994 11.6805 13.8673 12.8049 12.7421C13.9293 11.6169 14.5609 10.0908 14.5609 8.49957C14.5609 6.90831 13.9293 5.38222 12.8049 4.25702C11.6805 3.13183 10.1555 2.4997 8.56537 2.4997C6.97525 2.4997 5.45026 3.13183 4.32588 4.25702C3.20149 5.38222 2.56982 6.90831 2.56982 8.49957C2.56982 10.0908 3.20149 11.6169 4.32588 12.7421C5.45026 13.8673 6.97525 14.4994 8.56537 14.4994Z" fill="#D2D2D2"/>
</svg>
