<svg width="57" height="63" viewBox="0 0 57 63" fill="none" xmlns="http://www.w3.org/2000/svg">
<path d="M43.4912 8.70883L37.8356 11.5746L36.6825 5.30478C36.0482 1.85637 33.4933 0.0666245 31.0048 1.32757L3.85776 15.0834C1.36928 16.3443 -0.147836 20.1974 0.48639 23.6458L5.67551 51.8601C6.30974 55.3085 8.86468 57.0983 11.3532 55.8373C12.3103 61.0413 16.1143 63.706 19.8696 61.8031C23.625 59.9003 25.8838 54.1634 24.9267 48.9594L38.5002 42.0815C39.4573 47.2855 43.2613 49.9502 47.0167 48.0473C50.772 46.1445 53.0308 40.4076 52.0737 35.2036L54.336 34.0573C55.5802 33.4269 56.3388 31.5003 56.0217 29.7761L54.1017 19.3368C53.8538 17.9888 53.2949 16.8326 52.5049 16.0334L45.5317 9.04575C44.9577 8.47982 44.1925 8.35347 43.4912 8.70883ZM18.7165 55.5333C17.4723 56.1638 16.1948 55.2689 15.8777 53.5447C15.5606 51.8205 16.3191 49.8939 17.5634 49.2635C18.8076 48.633 20.0851 49.5279 20.4022 51.2521C20.7193 52.9763 19.9607 54.9028 18.7165 55.5333ZM44.3561 13.4112L50.2315 19.0017L40.1419 24.1143L38.7005 16.277L44.3561 13.4112ZM45.8635 41.7775C44.6193 42.408 43.3418 41.5131 43.0247 39.7889C42.7076 38.0647 43.4662 36.1381 44.7104 35.5077C45.9546 34.8772 47.2321 35.7721 47.5492 37.4963C47.8663 39.2205 47.1078 41.147 45.8635 41.7775Z" fill="white" fill-opacity="0.13"/>
</svg>
