<svg width="19" height="19" viewBox="0 0 19 19" fill="none" xmlns="http://www.w3.org/2000/svg">
<path d="M17.4167 9.28992C17.4167 3.79992 13.5117 0.0699158 9.16667 0.0699158C4.8675 0.0699158 0.916667 3.71992 0.916667 9.34992C0.366667 9.68992 0 10.3299 0 11.0699V13.0699C0 14.1699 0.825 15.0699 1.83333 15.0699H2.75V8.96992C2.75 5.09992 5.61917 1.96992 9.16667 1.96992C12.7142 1.96992 15.5833 5.09992 15.5833 8.96992V16.0699H8.25V18.0699H15.5833C16.5917 18.0699 17.4167 17.1699 17.4167 16.0699V14.8499C17.9575 14.5399 18.3333 13.9299 18.3333 13.2099V10.9099C18.3333 10.2099 17.9575 9.59992 17.4167 9.28992Z" fill="#1A6BBA"/>
</svg>
