<svg width="54" height="43" viewBox="0 0 54 43" fill="none" xmlns="http://www.w3.org/2000/svg">
<path d="M42.8117 3.62637L37.156 6.49216L36.4551 2.68108C36.0696 0.584982 33.7181 -0.0983197 31.2297 1.16263L4.08261 14.9184C1.59413 16.1794 -0.126477 18.926 0.259033 21.0221L3.41321 38.172C3.79871 40.2681 6.15016 40.9514 8.63864 39.6904C9.22041 42.8536 12.7215 43.871 16.4768 41.9681C20.2321 40.0652 22.7939 35.9757 22.2122 32.8125L35.7857 25.9346C36.3675 29.0978 39.8685 30.1152 43.6238 28.2123C47.3792 26.3094 49.941 22.2199 49.3592 19.0568L51.6215 17.9104C52.8657 17.28 53.726 15.9066 53.5333 14.8586L52.3662 8.51313C52.2155 7.69375 51.7516 7.05391 51.0408 6.68501L44.7617 3.47153C44.2442 3.21295 43.513 3.27101 42.8117 3.62637ZM15.7759 38.157C14.5316 38.7875 13.3559 38.4458 13.1631 37.3978C12.9704 36.3498 13.8307 34.9764 15.0749 34.3459C16.3192 33.7155 17.4949 34.0571 17.6877 35.1052C17.8804 36.1532 17.0201 37.5265 15.7759 38.157ZM43.3374 6.48468L48.6475 9.00175L38.5579 14.1143L37.6817 9.35046L43.3374 6.48468ZM42.9229 24.4012C41.6787 25.0317 40.503 24.6901 40.3102 23.642C40.1174 22.594 40.9778 21.2206 42.222 20.5902C43.4662 19.9597 44.642 20.3013 44.8347 21.3494C45.0275 22.3974 44.1672 23.7708 42.9229 24.4012Z" fill="white" fill-opacity="0.13"/>
</svg>
