<svg width="35" height="42" viewBox="0 0 35 42" fill="none" xmlns="http://www.w3.org/2000/svg">
<path d="M10.5266 5.925C10.9849 5.70038 11.5059 5.68157 11.9768 5.87264C12.4477 6.06371 12.8307 6.44928 13.0427 6.94589C13.2548 7.44249 13.2789 8.01017 13.1099 8.52601C12.9408 9.04186 12.5922 9.46437 12.1395 9.70208C9.377 11.1007 7.13528 13.4857 5.78531 16.4622C4.43533 19.4388 4.058 22.8286 4.71576 26.0708C5.37351 29.313 7.02693 32.2132 9.40242 34.2915C11.7779 36.3699 14.7331 37.5018 17.779 37.5C20.821 37.4992 23.7719 36.3678 26.1446 34.2925C28.5174 32.2173 30.1702 29.3222 30.8304 26.085C31.4906 22.8478 31.1187 19.4619 29.7761 16.4862C28.4335 13.5104 26.2004 11.1226 23.4453 9.71667C23.2179 9.60067 23.0137 9.43698 22.8444 9.23495C22.6751 9.03293 22.5439 8.79651 22.4583 8.53922C22.2856 8.01959 22.3093 7.44643 22.5242 6.94583C22.7391 6.44524 23.1276 6.05821 23.6043 5.86989C24.0809 5.68157 24.6067 5.70739 25.0659 5.94167C28.0286 7.45121 30.535 9.85069 32.2907 12.8585C34.0465 15.8663 34.9789 19.3577 34.9785 22.9229C34.9785 33.2771 27.277 41.6667 17.779 41.6667C8.28112 41.6667 0.57959 33.275 0.57959 22.925C0.578937 19.3525 1.5149 15.8543 3.27721 12.8424C5.03953 9.83052 7.55476 7.43047 10.5266 5.925ZM17.779 0C18.2471 6.73137e-05 18.6989 0.187409 19.0487 0.52649C19.3985 0.865572 19.6219 1.33281 19.6767 1.83958L19.6901 2.08333V16.6667C19.69 17.1978 19.5039 17.7089 19.1696 18.0955C18.8354 18.482 18.3784 18.7147 17.892 18.7461C17.4056 18.7775 16.9266 18.6052 16.5528 18.2644C16.1791 17.9235 15.9389 17.44 15.8814 16.9125L15.868 16.6667V2.08333C15.868 1.5308 16.0693 1.00089 16.4277 0.610194C16.7861 0.219493 17.2722 0 17.779 0Z" fill="black"/>
</svg>
