<svg width="50" height="36" viewBox="0 0 50 36" fill="none" xmlns="http://www.w3.org/2000/svg">
<path d="M2.77778 36H47.2222C48.75 36 50 34.65 50 33C50 31.35 48.75 30 47.2222 30H2.77778C1.25 30 0 31.35 0 33C0 34.65 1.25 36 2.77778 36ZM2.77778 21H47.2222C48.75 21 50 19.65 50 18C50 16.35 48.75 15 47.2222 15H2.77778C1.25 15 0 16.35 0 18C0 19.65 1.25 21 2.77778 21ZM0 3.00002C0 4.65002 1.25 6.00002 2.77778 6.00002H47.2222C48.75 6.00002 50 4.65002 50 3.00002C50 1.35002 48.75 1.52588e-05 47.2222 1.52588e-05H2.77778C1.25 1.52588e-05 0 1.35002 0 3.00002Z" fill="black"/>
</svg>
