<svg width="19" height="19" viewBox="0 0 19 19" fill="none" xmlns="http://www.w3.org/2000/svg">
<path d="M17.4167 9.43783C17.4167 3.94783 13.5117 0.217834 9.16667 0.217834C4.8675 0.217834 0.916667 3.86783 0.916667 9.49783C0.366667 9.83783 0 10.4778 0 11.2178V13.2178C0 14.3178 0.825 15.2178 1.83333 15.2178H2.75V9.11783C2.75 5.24783 5.61917 2.11783 9.16667 2.11783C12.7142 2.11783 15.5833 5.24783 15.5833 9.11783V16.2178H8.25V18.2178H15.5833C16.5917 18.2178 17.4167 17.3178 17.4167 16.2178V14.9978C17.9575 14.6878 18.3333 14.0778 18.3333 13.3578V11.0578C18.3333 10.3578 17.9575 9.74784 17.4167 9.43783Z" fill="#BF743B"/>
</svg>
