<svg width="19" height="21" viewBox="0 0 19 21" fill="none" xmlns="http://www.w3.org/2000/svg">
<path d="M5.54167 16.7178C4.52569 16.7178 3.70368 17.6178 3.70368 18.7178C3.70368 19.8178 4.52569 20.7178 5.54167 20.7178C6.55764 20.7178 7.38889 19.8178 7.38889 18.7178C7.38889 17.6178 6.55764 16.7178 5.54167 16.7178ZM0 1.71784C0 2.26784 0.415625 2.71784 0.923611 2.71784H1.84722L5.17222 10.3078L3.92535 12.7478C3.25111 14.0878 4.13778 15.7178 5.54167 15.7178H15.7014C16.2094 15.7178 16.625 15.2678 16.625 14.7178C16.625 14.1678 16.2094 13.7178 15.7014 13.7178H5.54167L6.55764 11.7178H13.4385C14.1312 11.7178 14.7408 11.3078 15.0549 10.6878L18.3614 4.19784C18.4392 4.04626 18.4792 3.87531 18.4772 3.70189C18.4753 3.52847 18.4316 3.35861 18.3504 3.2091C18.2693 3.05959 18.1534 2.93562 18.0144 2.84945C17.8754 2.76329 17.718 2.71792 17.5578 2.71784H3.8884L3.26958 1.28784C3.19535 1.11714 3.07775 0.972876 2.93053 0.871929C2.78332 0.770982 2.61259 0.717532 2.43833 0.717836H0.923611C0.415625 0.717836 0 1.16784 0 1.71784ZM14.7778 16.7178C13.7618 16.7178 12.9398 17.6178 12.9398 18.7178C12.9398 19.8178 13.7618 20.7178 14.7778 20.7178C15.7937 20.7178 16.625 19.8178 16.625 18.7178C16.625 17.6178 15.7937 16.7178 14.7778 16.7178Z" fill="#BF743B"/>
</svg>
