<svg width="15" height="21" viewBox="0 0 15 21" fill="none" xmlns="http://www.w3.org/2000/svg">
<path d="M12.9306 4.57977H11.0833C11.0833 2.36977 9.43007 0.579773 7.38889 0.579773C5.34771 0.579773 3.69444 2.36977 3.69444 4.57977H1.84722C0.83125 4.57977 0 5.47977 0 6.57977V18.5798C0 19.6798 0.83125 20.5798 1.84722 20.5798H12.9306C13.9465 20.5798 14.7778 19.6798 14.7778 18.5798V6.57977C14.7778 5.47977 13.9465 4.57977 12.9306 4.57977ZM5.54167 8.57977C5.54167 9.12977 5.12604 9.57977 4.61805 9.57977C4.11007 9.57977 3.69444 9.12977 3.69444 8.57977V6.57977H5.54167V8.57977ZM7.38889 2.57977C8.40486 2.57977 9.23611 3.47977 9.23611 4.57977H5.54167C5.54167 3.47977 6.37292 2.57977 7.38889 2.57977ZM11.0833 8.57977C11.0833 9.12977 10.6677 9.57977 10.1597 9.57977C9.65173 9.57977 9.23611 9.12977 9.23611 8.57977V6.57977H11.0833V8.57977Z" fill="#BF743B"/>
</svg>
