<svg width="77" height="71" viewBox="0 0 77 71" fill="none" xmlns="http://www.w3.org/2000/svg">
<path d="M43.4207 3.89286L36.9315 7.14474C32.9241 0.713091 23.8704 -1.58582 16.6997 2.0075C9.52909 5.60082 6.96701 13.7206 10.9744 20.1522L4.48515 23.4041C0.91605 25.1926 -0.372148 29.2752 1.62248 32.4765L23.3821 67.3994C25.3767 70.6007 29.9289 71.7566 33.498 69.968L72.4335 50.4568C76.0026 48.6683 77.2908 44.5857 75.2962 41.3844L53.5366 6.46148C51.542 3.26021 46.9898 2.10433 43.4207 3.89286ZM24.7169 28.5413C25.7142 30.142 25.0701 32.1833 23.2855 33.0775C21.501 33.9718 19.2249 33.3939 18.2276 31.7932L14.601 25.9727L21.0903 22.7208L24.7169 28.5413ZM20.3263 7.82799C23.8954 6.03946 28.4476 7.19534 30.4422 10.3966L17.4637 16.9004C15.469 13.6991 16.7572 9.61652 20.3263 7.82799ZM44.1847 18.7857C45.182 20.3864 44.5379 22.4276 42.7533 23.3219C40.9688 24.2162 38.6927 23.6382 37.6954 22.0376L34.0688 16.2171L40.5581 12.9652L44.1847 18.7857Z" fill="white" fill-opacity="0.13"/>
</svg>
