<svg width="68" height="67" viewBox="0 0 68 67" fill="none" xmlns="http://www.w3.org/2000/svg">
<path d="M34.3185 55.2408C31.5779 56.7451 30.4531 60.3297 31.7884 63.2232C33.1237 66.1167 36.4336 67.267 39.1742 65.7627C41.9148 64.2584 43.0645 60.6602 41.7292 57.7666C40.3939 54.8731 37.0591 53.7365 34.3185 55.2408ZM1.16095 23.9892C1.82861 25.4359 3.49603 26.0042 4.86631 25.2521L7.35774 23.8845L25.5406 38.9265L25.1392 47.1911C24.9471 51.7142 29.3176 54.689 33.1046 52.6103L60.5103 37.5672C61.8806 36.815 62.4554 35.0159 61.7878 33.5692C61.1201 32.1224 59.4527 31.5541 58.0824 32.3063L30.6767 47.3494L30.9894 40.5842L49.5506 30.3959C51.4191 29.3702 52.5658 27.3891 52.6602 25.2933L53.7011 3.32566C53.7271 2.81169 53.6273 2.30288 53.4116 1.84956C53.1959 1.39624 52.8718 1.01412 52.4713 0.741035C52.0709 0.467945 51.6079 0.313342 51.1284 0.292525C50.6488 0.271708 50.1692 0.385398 49.737 0.622346L12.8638 20.8622L9.45863 18.0169C9.05118 17.6778 8.55881 17.4725 8.03916 17.4249C7.51951 17.3773 6.99408 17.4895 6.5244 17.7483L2.43845 19.9911C1.06817 20.7433 0.493292 22.5424 1.16095 23.9892ZM59.2328 41.5652C56.4922 43.0696 55.3674 46.6541 56.7027 49.5476C58.038 52.4411 61.3479 53.5914 64.0885 52.0871C66.8291 50.5828 67.9788 46.9846 66.6435 44.0911C65.3082 41.1975 61.9734 40.0609 59.2328 41.5652Z" fill="white" fill-opacity="0.13"/>
</svg>
